<svg version="1.1" xmlns="http://www.w3.org/2000/svg" xmlns:xlink="http://www.w3.org/1999/xlink" stroke-linecap="round" stroke-linejoin="round" stroke-width="0" fill-rule="evenodd" clip-rule="evenodd" id="HkBJNdsYbV0p7xZ8t4r1_top" viewBox="8509 15748 59999.880000000005 48641" width="59.999880000000005mm" height="48.641mm" class="w-100 h-100"><defs><style>.HkBJNdsYbV0p7xZ8t4r1_fr4 {color: #666666;}
.HkBJNdsYbV0p7xZ8t4r1_cu {color: #cccccc;}
.HkBJNdsYbV0p7xZ8t4r1_cf {color: #cc9933;}
.HkBJNdsYbV0p7xZ8t4r1_sm {color: #004200; opacity: 0.75;}
.HkBJNdsYbV0p7xZ8t4r1_ss {color: #ffffff;}
.HkBJNdsYbV0p7xZ8t4r1_sp {color: #999999;}
.HkBJNdsYbV0p7xZ8t4r1_out {color: #000000;}</style><circle cx="0" cy="0" r="762" id="akWqPkzag7sY9Fv06_dY_pad-12"/><rect x="-787.4" y="-787.4" width="1574.8" height="1574.8" id="akWqPkzag7sY9Fv06_dY_pad-13"/><circle cx="0" cy="0" r="700" id="akWqPkzag7sY9Fv06_dY_pad-14"/><circle cx="0" cy="0" r="825.5" id="akWqPkzag7sY9Fv06_dY_pad-15"/><circle cx="0" cy="0" r="939.8" id="akWqPkzag7sY9Fv06_dY_pad-16"/><rect x="-730.9993" y="-913.7523" width="1461.9986" height="1827.5046" rx="730.9993" ry="730.9993" id="akWqPkzag7sY9Fv06_dY_pad-17"/><rect x="-720.0011" y="-899.9982" width="1440.0022" height="1799.9964" rx="720.0011" ry="720.0011" id="akWqPkzag7sY9Fv06_dY_pad-18"/><rect x="-799.973" y="-799.9984" width="1599.946" height="1599.9968" rx="799.973" ry="799.973" id="akWqPkzag7sY9Fv06_dY_pad-19"/><rect x="-999.998" y="-1299.9974" width="1999.996" height="2599.9948" rx="999.998" ry="999.998" id="akWqPkzag7sY9Fv06_dY_pad-20"/><circle cx="0" cy="0" r="310" id="akWqPkzag7sY9Fv06_dY_pad-21"/><circle cx="0" cy="0" r="812" id="qNN0U5VLRnf_nEF-Wtwg_pad-10"/><polygon points="-808.5,-838.2 -838.2,-808.4 -838.2,808.5 -808.5,838.2 808.4,838.2 838.2,808.5 838.2,-808.4 808.4,-838.2" id="qNN0U5VLRnf_nEF-Wtwg_pad-11"/><circle cx="0" cy="0" r="750.8" id="qNN0U5VLRnf_nEF-Wtwg_pad-12"/><circle cx="0" cy="0" r="876.3" id="qNN0U5VLRnf_nEF-Wtwg_pad-13"/><circle cx="0" cy="0" r="990.6" id="qNN0U5VLRnf_nEF-Wtwg_pad-14"/><rect x="-781.7993" y="-964.5523" width="1563.5986" height="1929.1046" rx="781.7993" ry="781.7993" id="qNN0U5VLRnf_nEF-Wtwg_pad-15"/><rect x="-770.8011" y="-950.7982" width="1541.6022" height="1901.5964" rx="770.8011" ry="770.8011" id="qNN0U5VLRnf_nEF-Wtwg_pad-16"/><rect x="-850.773" y="-850.7984" width="1701.546" height="1701.5968" rx="850.773" ry="850.773" id="qNN0U5VLRnf_nEF-Wtwg_pad-17"/><rect x="-1050.798" y="-1350.7974" width="2101.596" height="2701.5948" rx="1050.798" ry="1050.798" id="qNN0U5VLRnf_nEF-Wtwg_pad-18"/><circle cx="0" cy="0" r="155" id="BVLUQUuNbp7P_k8y6-Z3_pad-1"/><circle cx="0" cy="0" r="155" id="mRocsrq9sKoXMC55LfxW_pad-1"/><circle cx="0" cy="0" r="400" id="mRocsrq9sKoXMC55LfxW_pad-2"/><circle cx="0" cy="0" r="444.5" id="mRocsrq9sKoXMC55LfxW_pad-3"/><circle cx="0" cy="0" r="450" id="mRocsrq9sKoXMC55LfxW_pad-4"/><circle cx="0" cy="0" r="450.5" id="mRocsrq9sKoXMC55LfxW_pad-5"/><circle cx="0" cy="0" r="500" id="mRocsrq9sKoXMC55LfxW_pad-6"/><g id="HkBJNdsYbV0p7xZ8t4r1_top_copper"><path d="M 42545 27464.99 42545 32639 39370 35814 31496 35814 28702 38608 28702 39530.02 M 40005 27592.02 41816.02 25781 51943 25781 53975 27813 53975 31496 M 37465 27464.99 37465 31750 35687 33528 29624.02 33528 23622 39530.02 M 45085 27464.99 45085 32639 40767 36957 33147 36957 31242 38862 31242 39530.02 M 45466 24638 53594 24638 53975 25019 M 40005 19651.97 37812.97 21844 23573.74 21844 22303.74 23114 M 40005 27465.02 40005 31623 37084 34544 30607 34544 26162 38989 26162 39530.02 M 45085 19652 42577.99 17145 33782 17145" fill="none" stroke-width="400"/><path d="M 37465 19651.97 35847.02 18034 25527 18034" fill="none" stroke-width="500"/><path d="M 24305.25 23114 25702.25 24511 29337 24511 30734 23114 M 45974 29972 53213 37211 53848 37211 M 45085 27591.99 46576 29083 52324 29083 M 13462 45577.98 17795.01 49911 28067 49911 M 38862 53340 38862 50197.99 38989 50070.99 M 44069 50071.02 37939.97 43942 23622 43942 21209 41529 21209 39529.99 M 41529 50071.02 36669.97 45212 22098 45212 18669 41783 18669 39529.99 M 46609 33782 46609 42131 M 46609 42130.97 51816 47337.97 51816 49784 51816 49784 M 38989 50071.02 35653.97 46736 21336 46736 16129 41529 16129 39529.99 M 43180 52451 55372 52451 57531 54737 57531 57150 53594 61087 M 36576 57531 36576 57404 42418 51562 50292 51562 51816 49784" fill="none" stroke-width="400"/><use xlink:href="#akWqPkzag7sY9Fv06_dY_pad-12" x="26303.98" y="23114"/><use xlink:href="#akWqPkzag7sY9Fv06_dY_pad-12" x="24303.99" y="23114"/><use xlink:href="#akWqPkzag7sY9Fv06_dY_pad-12" x="22303.99" y="23114"/><use xlink:href="#akWqPkzag7sY9Fv06_dY_pad-12" x="20303.99" y="23114"/><use xlink:href="#akWqPkzag7sY9Fv06_dY_pad-12" x="18304" y="23114"/><use xlink:href="#akWqPkzag7sY9Fv06_dY_pad-12" x="16304" y="23114"/><use xlink:href="#akWqPkzag7sY9Fv06_dY_pad-12" x="14304.01" y="23114"/><use xlink:href="#akWqPkzag7sY9Fv06_dY_pad-12" x="12304.01" y="23114"/><use xlink:href="#akWqPkzag7sY9Fv06_dY_pad-12" x="13462" y="59577.98"/><use xlink:href="#akWqPkzag7sY9Fv06_dY_pad-12" x="13462" y="57577.98"/><use xlink:href="#akWqPkzag7sY9Fv06_dY_pad-12" x="13462" y="55577.99"/><use xlink:href="#akWqPkzag7sY9Fv06_dY_pad-12" x="13462" y="53577.99"/><use xlink:href="#akWqPkzag7sY9Fv06_dY_pad-12" x="13462" y="51578"/><use xlink:href="#akWqPkzag7sY9Fv06_dY_pad-12" x="13462" y="49578"/><use xlink:href="#akWqPkzag7sY9Fv06_dY_pad-12" x="13462" y="47578.01"/><use xlink:href="#akWqPkzag7sY9Fv06_dY_pad-12" x="13462" y="45578.01"/><use xlink:href="#akWqPkzag7sY9Fv06_dY_pad-13" x="18161" y="62103"/><use xlink:href="#akWqPkzag7sY9Fv06_dY_pad-14" x="64516" y="18796"/><use xlink:href="#akWqPkzag7sY9Fv06_dY_pad-14" x="67056" y="18796"/><use xlink:href="#akWqPkzag7sY9Fv06_dY_pad-14" x="64516" y="24892"/><use xlink:href="#akWqPkzag7sY9Fv06_dY_pad-14" x="67056" y="24892"/><use xlink:href="#akWqPkzag7sY9Fv06_dY_pad-14" x="64516" y="31369"/><use xlink:href="#akWqPkzag7sY9Fv06_dY_pad-14" x="67056" y="31369"/><use xlink:href="#akWqPkzag7sY9Fv06_dY_pad-14" x="64516" y="37338"/><use xlink:href="#akWqPkzag7sY9Fv06_dY_pad-14" x="67056" y="37338"/><use xlink:href="#akWqPkzag7sY9Fv06_dY_pad-14" x="64516" y="43180"/><use xlink:href="#akWqPkzag7sY9Fv06_dY_pad-14" x="67056" y="43180"/><use xlink:href="#akWqPkzag7sY9Fv06_dY_pad-14" x="64516" y="49149"/><use xlink:href="#akWqPkzag7sY9Fv06_dY_pad-14" x="67056" y="49149"/><use xlink:href="#akWqPkzag7sY9Fv06_dY_pad-14" x="64516" y="55245"/><use xlink:href="#akWqPkzag7sY9Fv06_dY_pad-14" x="67056" y="55245"/><use xlink:href="#akWqPkzag7sY9Fv06_dY_pad-15" x="64516" y="60960"/><use xlink:href="#akWqPkzag7sY9Fv06_dY_pad-15" x="67056" y="60960"/><use xlink:href="#akWqPkzag7sY9Fv06_dY_pad-16" x="61468" y="18669"/><use xlink:href="#akWqPkzag7sY9Fv06_dY_pad-16" x="53848" y="18669"/><use xlink:href="#akWqPkzag7sY9Fv06_dY_pad-16" x="61595" y="25019"/><use xlink:href="#akWqPkzag7sY9Fv06_dY_pad-16" x="53975" y="25019"/><use xlink:href="#akWqPkzag7sY9Fv06_dY_pad-16" x="61595" y="31496"/><use xlink:href="#akWqPkzag7sY9Fv06_dY_pad-16" x="53975" y="31496"/><use xlink:href="#akWqPkzag7sY9Fv06_dY_pad-16" x="61468" y="37211"/><use xlink:href="#akWqPkzag7sY9Fv06_dY_pad-16" x="53848" y="37211"/><use xlink:href="#akWqPkzag7sY9Fv06_dY_pad-16" x="61214" y="48895"/><use xlink:href="#akWqPkzag7sY9Fv06_dY_pad-16" x="53594" y="48895"/><use xlink:href="#akWqPkzag7sY9Fv06_dY_pad-16" x="61595" y="55372"/><use xlink:href="#akWqPkzag7sY9Fv06_dY_pad-16" x="53975" y="55372"/><use xlink:href="#akWqPkzag7sY9Fv06_dY_pad-16" x="61214" y="61087"/><use xlink:href="#akWqPkzag7sY9Fv06_dY_pad-16" x="53594" y="61087"/><use xlink:href="#akWqPkzag7sY9Fv06_dY_pad-16" x="61087" y="43053"/><use xlink:href="#akWqPkzag7sY9Fv06_dY_pad-16" x="53467" y="43053"/><use xlink:href="#akWqPkzag7sY9Fv06_dY_pad-17" x="33909" y="39530.02"/><use xlink:href="#akWqPkzag7sY9Fv06_dY_pad-17" x="33909" y="31589.97"/><use xlink:href="#akWqPkzag7sY9Fv06_dY_pad-17" x="31369" y="39530.02"/><use xlink:href="#akWqPkzag7sY9Fv06_dY_pad-17" x="31369" y="31589.97"/><use xlink:href="#akWqPkzag7sY9Fv06_dY_pad-17" x="28829" y="39530.02"/><use xlink:href="#akWqPkzag7sY9Fv06_dY_pad-17" x="28829" y="31589.97"/><use xlink:href="#akWqPkzag7sY9Fv06_dY_pad-17" x="26289" y="39530.02"/><use xlink:href="#akWqPkzag7sY9Fv06_dY_pad-17" x="26289" y="31589.97"/><use xlink:href="#akWqPkzag7sY9Fv06_dY_pad-17" x="23749" y="39530.02"/><use xlink:href="#akWqPkzag7sY9Fv06_dY_pad-17" x="23749" y="31589.97"/><use xlink:href="#akWqPkzag7sY9Fv06_dY_pad-17" x="21209" y="39530.02"/><use xlink:href="#akWqPkzag7sY9Fv06_dY_pad-17" x="21209" y="31589.97"/><use xlink:href="#akWqPkzag7sY9Fv06_dY_pad-17" x="18669" y="39530.02"/><use xlink:href="#akWqPkzag7sY9Fv06_dY_pad-17" x="18669" y="31589.97"/><use xlink:href="#akWqPkzag7sY9Fv06_dY_pad-17" x="16129" y="39530.02"/><use xlink:href="#akWqPkzag7sY9Fv06_dY_pad-17" x="16129" y="31589.97"/><use xlink:href="#akWqPkzag7sY9Fv06_dY_pad-17" x="13589" y="39530.02"/><use xlink:href="#akWqPkzag7sY9Fv06_dY_pad-17" x="13589" y="31589.97"/><use xlink:href="#akWqPkzag7sY9Fv06_dY_pad-17" x="11049" y="39530.02"/><use xlink:href="#akWqPkzag7sY9Fv06_dY_pad-17" x="11049" y="31589.97"/><use xlink:href="#akWqPkzag7sY9Fv06_dY_pad-18" x="50165" y="27592.02"/><use xlink:href="#akWqPkzag7sY9Fv06_dY_pad-18" x="50165" y="19651.97"/><use xlink:href="#akWqPkzag7sY9Fv06_dY_pad-18" x="47625" y="27592.02"/><use xlink:href="#akWqPkzag7sY9Fv06_dY_pad-18" x="47625" y="19651.97"/><use xlink:href="#akWqPkzag7sY9Fv06_dY_pad-18" x="45085" y="27592.02"/><use xlink:href="#akWqPkzag7sY9Fv06_dY_pad-18" x="45085" y="19651.97"/><use xlink:href="#akWqPkzag7sY9Fv06_dY_pad-18" x="42545" y="27592.02"/><use xlink:href="#akWqPkzag7sY9Fv06_dY_pad-18" x="42545" y="19651.97"/><use xlink:href="#akWqPkzag7sY9Fv06_dY_pad-18" x="40005" y="27592.02"/><use xlink:href="#akWqPkzag7sY9Fv06_dY_pad-18" x="40005" y="19651.97"/><use xlink:href="#akWqPkzag7sY9Fv06_dY_pad-18" x="37465" y="27592.02"/><use xlink:href="#akWqPkzag7sY9Fv06_dY_pad-18" x="37465" y="19651.97"/><use xlink:href="#akWqPkzag7sY9Fv06_dY_pad-18" x="34925" y="27592.02"/><use xlink:href="#akWqPkzag7sY9Fv06_dY_pad-18" x="34925" y="19651.97"/><use xlink:href="#akWqPkzag7sY9Fv06_dY_pad-18" x="32385" y="27592.02"/><use xlink:href="#akWqPkzag7sY9Fv06_dY_pad-18" x="32385" y="19651.97"/><use xlink:href="#akWqPkzag7sY9Fv06_dY_pad-18" x="49149" y="50071.02"/><use xlink:href="#akWqPkzag7sY9Fv06_dY_pad-18" x="49149" y="42130.97"/><use xlink:href="#akWqPkzag7sY9Fv06_dY_pad-18" x="46609" y="50071.02"/><use xlink:href="#akWqPkzag7sY9Fv06_dY_pad-18" x="46609" y="42130.97"/><use xlink:href="#akWqPkzag7sY9Fv06_dY_pad-18" x="44069" y="50071.02"/><use xlink:href="#akWqPkzag7sY9Fv06_dY_pad-18" x="44069" y="42130.97"/><use xlink:href="#akWqPkzag7sY9Fv06_dY_pad-18" x="41529" y="50071.02"/><use xlink:href="#akWqPkzag7sY9Fv06_dY_pad-18" x="41529" y="42130.97"/><use xlink:href="#akWqPkzag7sY9Fv06_dY_pad-18" x="38989" y="50071.02"/><use xlink:href="#akWqPkzag7sY9Fv06_dY_pad-18" x="38989" y="42130.97"/><use xlink:href="#akWqPkzag7sY9Fv06_dY_pad-18" x="36449" y="50071.02"/><use xlink:href="#akWqPkzag7sY9Fv06_dY_pad-18" x="36449" y="42130.97"/><use xlink:href="#akWqPkzag7sY9Fv06_dY_pad-18" x="33909" y="50071.02"/><use xlink:href="#akWqPkzag7sY9Fv06_dY_pad-18" x="33909" y="42130.97"/><use xlink:href="#akWqPkzag7sY9Fv06_dY_pad-18" x="31369" y="50071.02"/><use xlink:href="#akWqPkzag7sY9Fv06_dY_pad-18" x="31369" y="42130.97"/><use xlink:href="#akWqPkzag7sY9Fv06_dY_pad-19" x="27399.99" y="57531"/><use xlink:href="#akWqPkzag7sY9Fv06_dY_pad-19" x="23400" y="57531"/><use xlink:href="#akWqPkzag7sY9Fv06_dY_pad-19" x="25400" y="57531"/><use xlink:href="#akWqPkzag7sY9Fv06_dY_pad-20" x="21249.89" y="57531"/><use xlink:href="#akWqPkzag7sY9Fv06_dY_pad-20" x="29550.1" y="57531"/><use xlink:href="#akWqPkzag7sY9Fv06_dY_pad-19" x="38575.99" y="57531"/><use xlink:href="#akWqPkzag7sY9Fv06_dY_pad-19" x="34576" y="57531"/><use xlink:href="#akWqPkzag7sY9Fv06_dY_pad-19" x="36576" y="57531"/><use xlink:href="#akWqPkzag7sY9Fv06_dY_pad-20" x="32425.89" y="57531"/><use xlink:href="#akWqPkzag7sY9Fv06_dY_pad-20" x="40726.1" y="57531"/><use xlink:href="#akWqPkzag7sY9Fv06_dY_pad-19" x="49497.99" y="57658"/><use xlink:href="#akWqPkzag7sY9Fv06_dY_pad-19" x="45498" y="57658"/><use xlink:href="#akWqPkzag7sY9Fv06_dY_pad-19" x="47498" y="57658"/><use xlink:href="#akWqPkzag7sY9Fv06_dY_pad-20" x="43347.89" y="57658"/><use xlink:href="#akWqPkzag7sY9Fv06_dY_pad-20" x="51648.1" y="57658"/><use xlink:href="#akWqPkzag7sY9Fv06_dY_pad-21" x="46609" y="33782"/><use xlink:href="#akWqPkzag7sY9Fv06_dY_pad-21" x="52324" y="29083"/><use xlink:href="#akWqPkzag7sY9Fv06_dY_pad-21" x="45466" y="24638"/><use xlink:href="#akWqPkzag7sY9Fv06_dY_pad-21" x="33782" y="17145"/><use xlink:href="#akWqPkzag7sY9Fv06_dY_pad-21" x="25527" y="18034"/><use xlink:href="#akWqPkzag7sY9Fv06_dY_pad-21" x="30734" y="23114"/><use xlink:href="#akWqPkzag7sY9Fv06_dY_pad-21" x="45974" y="29972"/><use xlink:href="#akWqPkzag7sY9Fv06_dY_pad-21" x="28067" y="49911"/><use xlink:href="#akWqPkzag7sY9Fv06_dY_pad-21" x="38862" y="53340"/><use xlink:href="#akWqPkzag7sY9Fv06_dY_pad-21" x="43180" y="52451"/></g><g id="HkBJNdsYbV0p7xZ8t4r1_top_silkscreen"><path d="M 19939 20584.15 19939 19494.5 M 19939 20584.15 20406.36 20584.15 20561.29 20533.36 20614.63 20480.02 20665.43 20375.87 20665.43 20271.73 20614.63 20167.6 20561.29 20116.79 20406.36 20066 M 19939 20066 20406.36 20066 20561.29 20012.65 20614.63 19961.86 20665.43 19857.71 20665.43 19700.23 20614.63 19596.1 20561.29 19545.29 20406.36 19494.5 19939 19494.5 M 21008.34 20584.15 21008.34 19804.37 21061.68 19649.44 21165.81 19545.29 21320.75 19494.5 21424.9 19494.5 21579.84 19545.29 21683.97 19649.44 21737.31 19804.37 21737.31 20584.15 M 22806.65 20429.21 22702.52 20533.36 22547.58 20584.15 22339.29 20584.15 22184.36 20533.36 22080.22 20429.21 22080.22 20325.07 22131.02 20220.94 22184.36 20167.6 22288.5 20116.79 22598.38 20012.65 22702.52 19961.86 22755.86 19908.52 22806.65 19804.37 22806.65 19649.44 22702.52 19545.29 22547.58 19494.5 22339.29 19494.5 22184.36 19545.29 22080.22 19649.44 M 17282.15 52923.44 16192.5 53340 M 17282.15 52923.44 16192.5 52509.42 M 16555.71 53185.05 16555.71 52664.36 M 17282.15 52166.52 16192.5 52166.52 16192.5 51541.68 M 17282.15 51198.78 16502.37 51198.78 16347.44 51147.97 16243.29 51043.84 16192.5 50888.89 16192.5 50784.76 16243.29 50627.28 16347.44 50523.13 16502.37 50472.34 17282.15 50472.34 M 17686.02 59860.18 17632.68 59964.31 17528.54 60068.45 17426.94 60119.26 17218.65 60119.26 17114.52 60068.45 17010.37 59964.31 16957.04 59860.18 16906.23 59702.7 16906.23 59443.62 16957.04 59288.68 17010.37 59184.54 17114.52 59080.39 17218.65 59029.6 17426.94 59029.6 17528.54 59080.39 17632.68 59184.54 17686.02 59288.68 M 18028.92 60119.26 18028.92 59029.6 18651.21 59029.6 M 18994.12 60119.26 18994.12 59029.6 M 19723.09 60119.26 18994.12 59392.81 M 19255.73 59651.89 19723.09 59029.6 M 62711.33 17616.17 63800.99 17616.17 M 62711.33 17616.17 62711.33 18083.53 62762.13 18238.46 62815.47 18291.8 62919.61 18342.61 63023.75 18342.61 63127.88 18291.8 63178.68 18238.46 63229.49 18083.53 M 63229.49 17616.17 63229.49 18083.53 63282.83 18238.46 63333.63 18291.8 63437.77 18342.61 63595.25 18342.61 63699.38 18291.8 63750.18 18238.46 63800.99 18083.53 63800.99 17616.17 M 62711.33 19414.48 63800.99 18893.79 M 62711.33 18685.51 62711.33 19414.48 M 62557.65 23992.84 63647.31 23992.84 M 62557.65 23992.84 62557.65 24460.2 62608.45 24615.13 62661.79 24668.47 62765.93 24719.28 62870.08 24719.28 62974.22 24668.47 63025.02 24615.13 63075.81 24460.2 M 63075.81 23992.84 63075.81 24460.2 63129.15 24615.13 63179.95 24668.47 63284.09 24719.28 63441.58 24719.28 63545.72 24668.47 63596.52 24615.13 63647.31 24460.2 63647.31 23992.84 M 62712.59 25687.02 62608.45 25633.68 62557.65 25478.73 62557.65 25374.6 62608.45 25219.65 62765.93 25115.52 63025.02 25062.18 63284.09 25062.18 63492.38 25115.52 63596.52 25219.65 63647.31 25374.6 63647.31 25427.94 63596.52 25582.87 63492.38 25687.02 63337.43 25737.81 63284.09 25737.81 63129.15 25687.02 63025.02 25582.87 62974.22 25427.94 62974.22 25374.6 63025.02 25219.65 63129.15 25115.52 63284.09 25062.18 M 62584.33 30443.17 63673.99 30443.17 M 62584.33 30443.17 62584.33 30910.53 62635.13 31065.46 62688.47 31118.8 62792.61 31169.61 62896.75 31169.61 63000.88 31118.8 63051.68 31065.46 63102.49 30910.53 M 63102.49 30443.17 63102.49 30910.53 63155.83 31065.46 63206.63 31118.8 63310.77 31169.61 63468.25 31169.61 63572.38 31118.8 63623.18 31065.46 63673.99 30910.53 63673.99 30443.17 M 62584.33 32137.35 62584.33 31616.64 63051.68 31565.85 63000.88 31616.64 62947.54 31774.12 62947.54 31929.06 63000.88 32084.01 63102.49 32188.14 63259.97 32241.48 63364.11 32241.48 63519.04 32188.14 63623.18 32084.01 63673.99 31929.06 63673.99 31774.12 63623.18 31616.64 63572.38 31565.85 63468.25 31512.51 M 62355.72 36513.77 63445.38 36513.77 M 62355.72 36513.77 62355.72 36981.12 62406.52 37136.06 62459.86 37189.4 62564 37240.2 62668.15 37240.2 62772.29 37189.4 62823.09 37136.06 62873.88 36981.12 M 62873.88 36513.77 62873.88 36981.12 62927.22 37136.06 62978.02 37189.4 63082.16 37240.2 63239.65 37240.2 63343.79 37189.4 63394.59 37136.06 63445.38 36981.12 63445.38 36513.77 M 62355.72 38103.8 63082.16 37583.11 63082.16 38362.88 M 62355.72 38103.8 63445.38 38103.8 M 62346.84 42164 63436.5 42164 M 62346.84 42164 62346.84 42631.36 62397.63 42786.29 62450.97 42839.63 62555.11 42890.44 62659.25 42890.44 62763.4 42839.63 62814.2 42786.29 62865 42631.36 M 62865 42164 62865 42631.36 62918.34 42786.29 62969.13 42839.63 63073.27 42890.44 63230.75 42890.44 63334.9 42839.63 63385.7 42786.29 63436.5 42631.36 63436.5 42164 M 62346.84 43337.47 62346.84 43908.97 62763.4 43599.1 62763.4 43754.04 62814.2 43858.18 62865 43908.97 63022.47 43962.31 63126.61 43962.31 63281.56 43908.97 63385.7 43804.84 63436.5 43649.89 63436.5 43494.95 63385.7 43337.47 63334.9 43286.68 63230.75 43233.34 M 62584.33 47842.17 63673.99 47842.17 M 62584.33 47842.17 62584.33 48309.53 62635.13 48464.46 62688.47 48517.8 62792.61 48568.61 62896.75 48568.61 63000.88 48517.8 63051.68 48464.46 63102.49 48309.53 M 63102.49 47842.17 63102.49 48309.53 63155.83 48464.46 63206.63 48517.8 63310.77 48568.61 63468.25 48568.61 63572.38 48517.8 63623.18 48464.46 63673.99 48309.53 63673.99 47842.17 M 62843.4 48964.85 62792.61 48964.85 62688.47 49015.64 62635.13 49068.98 62584.33 49173.12 62584.33 49378.87 62635.13 49483.01 62688.47 49536.35 62792.61 49587.14 62896.75 49587.14 63000.88 49536.35 63155.83 49432.2 63673.99 48911.51 63673.99 49640.48 M 62600.84 54610 63690.5 54610 M 62600.84 54610 62600.84 55077.36 62651.63 55232.29 62704.97 55285.63 62809.11 55336.44 62913.25 55336.44 63017.4 55285.63 63068.2 55232.29 63119 55077.36 M 63119 54610 63119 55077.36 63172.34 55232.29 63223.13 55285.63 63327.27 55336.44 63484.75 55336.44 63588.9 55285.63 63639.7 55232.29 63690.5 55077.36 63690.5 54610 M 62809.11 55679.34 62755.77 55783.47 62600.84 55940.95 63690.5 55940.95 M 62584.33 59653.17 63673.99 59653.17 M 62584.33 59653.17 62584.33 60120.53 62635.13 60275.46 62688.47 60328.8 62792.61 60379.61 62896.75 60379.61 63000.88 60328.8 63051.68 60275.46 63102.49 60120.53 M 63102.49 59653.17 63102.49 60120.53 63155.83 60275.46 63206.63 60328.8 63310.77 60379.61 63468.25 60379.61 63572.38 60328.8 63623.18 60275.46 63673.99 60120.53 63673.99 59653.17 M 62584.33 61034.93 62635.13 60879.98 62792.61 60775.85 63051.68 60722.51 63206.63 60722.51 63468.25 60775.85 63623.18 60879.98 63673.99 61034.93 63673.99 61139.06 63623.18 61294.01 63468.25 61398.14 63206.63 61451.48 63051.68 61451.48 62792.61 61398.14 62635.13 61294.01 62584.33 61139.06 62584.33 61034.93 M 56515 21092.15 56515 20002.5 M 56515 21092.15 56982.36 21092.15 57137.29 21041.36 57190.63 20988.02 57241.43 20883.87 57241.43 20779.73 57190.63 20675.6 57137.29 20624.79 56982.36 20574 56515 20574 M 56878.22 20574 57241.43 20002.5 M 57845.95 21092.15 57688.47 21041.36 57637.68 20937.21 57637.68 20833.07 57688.47 20728.94 57792.61 20675.6 58000.9 20624.79 58155.84 20574 58259.97 20469.86 58313.31 20365.71 58313.31 20208.23 58259.97 20104.1 58209.18 20053.29 58051.7 20002.5 57845.95 20002.5 57688.47 20053.29 57637.68 20104.1 57584.34 20208.23 57584.34 20365.71 57637.68 20469.86 57741.81 20574 57896.75 20624.79 58105.04 20675.6 58209.18 20728.94 58259.97 20833.07 58259.97 20937.21 58209.18 21041.36 58051.7 21092.15 57845.95 21092.15 M 56769 27315.15 56769 26225.5 M 56769 27315.15 57236.36 27315.15 57391.29 27264.36 57444.63 27211.02 57495.43 27106.87 57495.43 27002.73 57444.63 26898.6 57391.29 26847.79 57236.36 26797 56769 26797 M 57132.22 26797 57495.43 26225.5 M 58567.31 27315.15 58046.61 26225.5 M 57838.34 27315.15 58567.31 27315.15 M 56642 33665.15 56642 32575.5 M 56642 33665.15 57109.36 33665.15 57264.29 33614.36 57317.63 33561.02 57368.43 33456.87 57368.43 33352.73 57317.63 33248.6 57264.29 33197.79 57109.36 33147 56642 33147 M 57005.22 33147 57368.43 32575.5 M 58336.18 33510.21 58282.84 33614.36 58127.9 33665.15 58023.75 33665.15 57868.81 33614.36 57764.68 33456.87 57711.34 33197.79 57711.34 32938.71 57764.68 32730.44 57868.81 32626.29 58023.75 32575.5 58077.09 32575.5 58232.04 32626.29 58336.18 32730.44 58386.97 32885.37 58386.97 32938.71 58336.18 33093.65 58232.04 33197.79 58077.09 33248.6 58023.75 33248.6 57868.81 33197.79 57764.68 33093.65 57711.34 32938.71 M 56769 39380.15 56769 38290.5 M 56769 39380.15 57236.36 39380.15 57391.29 39329.36 57444.63 39276.02 57495.43 39171.87 57495.43 39067.73 57444.63 38963.6 57391.29 38912.79 57236.36 38862 56769 38862 M 57132.22 38862 57495.43 38290.5 M 58463.18 39380.15 57942.47 39380.15 57891.68 38912.79 57942.47 38963.6 58099.95 39016.94 58254.9 39016.94 58409.84 38963.6 58513.97 38862 58567.31 38704.52 58567.31 38600.37 58513.97 38445.44 58409.84 38341.29 58254.9 38290.5 58099.95 38290.5 57942.47 38341.29 57891.68 38392.1 57838.34 38496.23 M 56388 51191.15 56388 50101.5 M 56388 51191.15 56855.36 51191.15 57010.29 51140.36 57063.63 51087.02 57114.43 50982.87 57114.43 50878.73 57063.63 50774.6 57010.29 50723.79 56855.36 50673 56388 50673 M 56751.22 50673 57114.43 50101.5 M 57561.47 51191.15 58132.97 51191.15 57823.09 50774.6 57978.04 50774.6 58082.18 50723.79 58132.97 50673 58186.31 50515.52 58186.31 50411.37 58132.97 50256.44 58028.84 50152.29 57873.9 50101.5 57718.95 50101.5 57561.47 50152.29 57510.68 50203.1 57457.34 50307.23 M 57023 57541.15 57023 56451.5 M 57023 57541.15 57490.36 57541.15 57645.29 57490.36 57698.63 57437.02 57749.43 57332.87 57749.43 57228.73 57698.63 57124.6 57645.29 57073.79 57490.36 57023 57023 57023 M 57386.22 57023 57749.43 56451.5 M 58145.68 57282.07 58145.68 57332.87 58196.47 57437.02 58249.81 57490.36 58353.95 57541.15 58559.7 57541.15 58663.84 57490.36 58717.18 57437.02 58767.97 57332.87 58767.97 57228.73 58717.18 57124.6 58613.04 56969.65 58092.34 56451.5 58821.31 56451.5 M 56896 63383.15 56896 62293.5 M 56896 63383.15 57363.36 63383.15 57518.29 63332.36 57571.63 63279.02 57622.43 63174.87 57622.43 63070.73 57571.63 62966.6 57518.29 62915.79 57363.36 62865 56896 62865 M 57259.22 62865 57622.43 62293.5 M 57965.34 63174.87 58069.47 63228.21 58226.95 63383.15 58226.95 62293.5 M 56515 45222.15 56515 44132.5 M 56515 45222.15 56982.36 45222.15 57137.29 45171.36 57190.63 45118.02 57241.43 45013.87 57241.43 44909.73 57190.63 44805.6 57137.29 44754.79 56982.36 44704 56515 44704 M 56878.22 44704 57241.43 44132.5 M 58105.04 45222.15 57584.34 44495.71 58364.11 44495.71 M 58105.04 45222.15 58105.04 44132.5 M 11522.7 29444.95 11418.56 29549.09 11263.62 29602.43 11055.35 29602.43 10897.87 29549.09 10796.27 29444.95 10796.27 29340.8 10847.06 29236.67 10897.87 29185.87 11002.01 29132.53 11314.43 29030.93 11418.56 28977.59 11469.37 28926.79 11522.7 28822.64 11522.7 28665.17 11418.56 28561.03 11263.62 28510.22 11055.35 28510.22 10897.87 28561.03 10796.27 28665.17 M 11865.61 29602.43 11865.61 28510.22 M 11865.61 29602.43 12592.04 28510.22 M 12592.04 29602.43 12592.04 28510.22 M 13663.93 29602.43 13143.22 28510.22 M 12934.95 29602.43 13663.93 29602.43 M 14524.98 29602.43 14006.82 28873.45 14784.06 28873.45 M 14524.98 29602.43 14524.98 28510.22 M 15126.96 29602.43 15126.96 28510.22 15751.8 28510.22 M 16821.14 29444.95 16717.01 29549.09 16562.06 29602.43 16353.79 29602.43 16198.85 29549.09 16094.7 29444.95 16094.7 29340.8 16145.51 29236.67 16198.85 29185.87 16302.98 29132.53 16612.87 29030.93 16717.01 28977.59 16770.35 28926.79 16821.14 28822.64 16821.14 28665.17 16717.01 28561.03 16562.06 28510.22 16353.79 28510.22 16198.85 28561.03 16094.7 28665.17 M 17217.38 29340.8 17217.38 29394.14 17268.19 29498.29 17321.53 29549.09 17425.67 29602.43 17631.4 29602.43 17735.54 29549.09 17788.88 29498.29 17839.69 29394.14 17839.69 29290.01 17788.88 29185.87 17684.75 29030.93 17164.04 28510.22 17893.03 28510.22 M 18754.09 29602.43 18235.93 28873.45 19013.17 28873.45 M 18754.09 29602.43 18754.09 28510.22 M 19980.9 29602.43 19460.2 29602.43 19409.4 29132.53 19460.2 29185.87 19617.68 29236.67 19772.63 29236.67 19927.56 29185.87 20031.7 29081.72 20085.04 28926.79 20085.04 28822.64 20031.7 28665.17 19927.56 28561.03 19772.63 28510.22 19617.68 28510.22 19460.2 28561.03 19409.4 28614.37 19356.06 28718.51 M 45049.43 18171.15 44531.27 17081.5 M 44323 18171.15 45049.43 18171.15 M 45913.04 18171.15 45392.34 17444.71 46172.11 17444.71 M 45913.04 18171.15 45913.04 17081.5 M 46515.02 18171.15 46515.02 17081.5 47139.86 17081.5 M 48209.2 18016.21 48105.06 18120.36 47950.11 18171.15 47741.84 18171.15 47586.9 18120.36 47482.75 18016.21 47482.75 17912.07 47533.56 17807.94 47586.9 17754.6 47688.5 17703.79 48000.91 17599.65 48105.06 17548.86 48158.4 17495.52 48209.2 17391.37 48209.2 17236.44 48105.06 17132.29 47950.11 17081.5 47741.84 17081.5 47586.9 17132.29 47482.75 17236.44 M 48552.09 17962.87 48656.24 18016.21 48811.18 18171.15 48811.18 17081.5 M 49883.06 18171.15 49362.36 17081.5 M 49154.08 18171.15 49883.06 18171.15 M 50330.09 18171.15 50901.59 18171.15 50589.18 17754.6 50744.11 17754.6 50848.25 17703.79 50901.59 17653 50952.4 17495.52 50952.4 17391.37 50901.59 17236.44 50797.45 17132.29 50639.97 17081.5 50485.04 17081.5 50330.09 17132.29 50276.75 17183.1 50225.95 17287.23 M 38191.43 40904.15 37673.27 39814.5 M 37465 40904.15 38191.43 40904.15 M 39055.04 40904.15 38534.34 40177.71 39314.11 40177.71 M 39055.04 40904.15 39055.04 39814.5 M 39657.02 40904.15 39657.02 39814.5 40281.86 39814.5 M 41351.2 40749.21 41247.06 40853.36 41092.11 40904.15 40883.84 40904.15 40728.9 40853.36 40624.75 40749.21 40624.75 40645.07 40675.56 40540.94 40728.9 40487.6 40830.5 40436.79 41142.91 40332.65 41247.06 40281.86 41300.4 40228.52 41351.2 40124.37 41351.2 39969.44 41247.06 39865.29 41092.11 39814.5 40883.84 39814.5 40728.9 39865.29 40624.75 39969.44 M 41694.09 40695.87 41798.24 40749.21 41953.18 40904.15 41953.18 39814.5 M 43025.06 40904.15 42504.36 39814.5 M 42296.08 40904.15 43025.06 40904.15 M 43472.09 40904.15 44043.59 40904.15 43731.18 40487.6 43886.11 40487.6 43990.25 40436.79 44043.59 40386 44094.4 40228.52 44094.4 40124.37 44043.59 39969.44 43939.45 39865.29 43781.97 39814.5 43627.04 39814.5 43472.09 39865.29 43418.75 39916.1 43367.95 40020.23 M 23103.84 60579.05 24193.5 60579.05 M 22895.56 61856.67 24559.25 60921.95 M 23103.84 62199.57 24193.5 62199.57 M 23103.84 62199.57 23103.84 62666.93 23154.63 62824.41 23207.97 62875.21 23312.11 62928.55 23467.06 62928.55 23571.2 62875.21 23622 62824.41 23675.34 62666.93 23675.34 62199.57 M 34538.91 61104.72 34434.77 61051.38 34330.63 60947.24 34279.84 60845.64 34279.84 60637.36 34330.63 60533.22 34434.77 60429.08 34538.91 60375.74 34696.4 60324.94 34955.47 60324.94 35110.41 60375.74 35214.56 60429.08 35318.7 60533.22 35369.5 60637.36 35369.5 60845.64 35318.7 60947.24 35214.56 61051.38 35110.41 61104.72 M 34279.84 61447.62 35369.5 61447.62 35369.5 62069.92 M 34279.84 62412.82 35369.5 62412.82 M 34279.84 62412.82 34279.84 62880.18 34330.63 63037.66 34383.97 63088.46 34488.11 63141.8 34592.25 63141.8 34696.4 63088.46 34747.2 63037.66 34798 62880.18 34798 62412.82 M 34798 62776.04 35369.5 63141.8 M 45074.84 60637.42 45125.63 60533.28 45229.77 60429.13 45333.91 60375.79 45491.4 60325 45750.47 60325 45905.41 60375.79 46009.56 60429.13 46113.7 60533.28 46164.5 60637.42 46164.5 60845.7 46113.7 60947.29 46009.56 61051.44 45905.41 61104.78 45750.47 61155.57 45491.4 61155.57 45333.91 61104.78 45229.77 61051.44 45125.63 60947.29 45074.84 60845.7 45074.84 60637.42 M 44866.56 62433.2 46530.25 61498.47 M 45074.84 62776.1 46164.5 62776.1 M 45074.84 62776.1 45074.84 63246 45125.63 63400.94 45178.97 63451.73 45283.11 63505.07 45438.06 63505.07 45542.2 63451.73 45593 63400.94 45646.34 63246 45646.34 62776.1" fill="none" stroke-width="152.4"/><path d="M 28303.95 21014.02 10203.91 21014.02 10203.91 26114.09 28303.95 26114.09 28303.95 21014.02 M 15561.97 61577.95 15561.97 43477.91 10461.9 43477.91 10461.9 61577.95 15561.97 61577.95" fill="none" stroke-width="254"/><path d="M 19431 60833 16891 60833 16891 63373 19431 63373 19431 61468" fill="none" stroke-width="203.2"/><path d="M 19431 60833 19431 61468" fill="none" stroke-width="203"/><path d="M 67467.47 17526 67472.81 20073.87 M 67467.47 23622 67472.81 26169.87 M 67467.47 30099 67472.81 32646.87 M 67467.47 36068 67472.81 38615.87 M 67467.47 41910 67472.81 44457.87 M 67467.47 47879 67472.81 50426.87 M 67467.47 53975 67472.81 56522.87 M 67467.47 59690 67472.81 62237.87 M 60198 18669 60452 18669 M 55118 18669 54864 18669 M 60198 18669 60198 17907 M 60198 19431 60198 18669 M 55118 19431 60198 19431 M 55118 18669 55118 19431 M 55118 17907 55118 18669 M 60198 17907 55118 17907 M 60325 25019 60579 25019 M 55245 25019 54991 25019 M 60325 25019 60325 24257 M 60325 25781 60325 25019 M 55245 25781 60325 25781 M 55245 25019 55245 25781 M 55245 24257 55245 25019 M 60325 24257 55245 24257 M 60325 31496 60579 31496 M 55245 31496 54991 31496 M 60325 31496 60325 30734 M 60325 32258 60325 31496 M 55245 32258 60325 32258 M 55245 31496 55245 32258 M 55245 30734 55245 31496 M 60325 30734 55245 30734 M 60198 37211 60452 37211 M 55118 37211 54864 37211 M 60198 37211 60198 36449 M 60198 37973 60198 37211 M 55118 37973 60198 37973 M 55118 37211 55118 37973 M 55118 36449 55118 37211 M 60198 36449 55118 36449 M 59944 48895 60198 48895 M 54864 48895 54610 48895 M 59944 48895 59944 48133 M 59944 49657 59944 48895 M 54864 49657 59944 49657 M 54864 48895 54864 49657 M 54864 48133 54864 48895 M 59944 48133 54864 48133 M 60325 55372 60579 55372 M 55245 55372 54991 55372 M 60325 55372 60325 54610 M 60325 56134 60325 55372 M 55245 56134 60325 56134 M 55245 55372 55245 56134 M 55245 54610 55245 55372 M 60325 54610 55245 54610 M 59944 61087 60198 61087 M 54864 61087 54610 61087 M 59944 61087 59944 60325 M 59944 61849 59944 61087 M 54864 61849 59944 61849 M 54864 61087 54864 61849 M 54864 60325 54864 61087 M 59944 60325 54864 60325 M 59817 43053 60071 43053 M 54737 43053 54483 43053 M 59817 43053 59817 42291 M 59817 43815 59817 43053 M 54737 43815 59817 43815 M 54737 43053 54737 43815 M 54737 42291 54737 43053 M 59817 42291 54737 42291" fill="none" stroke-width="254"/><path d="M 35505.16 36384.99 35505.16 38387.65 9452.81 38387.65 9452.81 32732.34 35505.16 32732.34 35505.16 34735 M 51003.68 24415.75 51003.68 26463.39 31546.31 26463.39 31546.31 20780.6 51003.68 20780.6 51003.68 22828.25 M 49987.68 46894.75 49987.68 48942.39 30530.31 48942.39 30530.31 43259.6 49987.68 43259.6 49987.68 45307.25" fill="none" stroke-width="152.4"/><path d="M 27183.71 59730.94 27183.71 62864.94 25146 62864.94 25146 59730.94 M 21000 55330.95 29799.99 55330.95 M 21000 59730.94 29799.99 59730.94 M 29799.99 55330.95 29799.99 55816.19 M 29799.99 59245.7 29799.99 59730.94 M 21000 55330.95 21000 55816.19 M 21000 59245.7 21000 59730.94 M 38359.71 59730.94 38359.71 62864.94 36322 62864.94 36322 59730.94 M 32176 55330.95 40975.99 55330.95 M 32176 59730.94 40975.99 59730.94 M 40975.99 55330.95 40975.99 55816.19 M 40975.99 59245.7 40975.99 59730.94 M 32176 55330.95 32176 55816.19 M 32176 59245.7 32176 59730.94 M 49281.71 59857.94 49281.71 62991.94 47244 62991.94 47244 59857.94 M 43098 55457.95 51897.99 55457.95 M 43098 59857.94 51897.99 59857.94 M 51897.99 55457.95 51897.99 55943.19 M 51897.99 59372.7 51897.99 59857.94 M 43098 55457.95 43098 55943.19 M 43098 59372.7 43098 59857.94 M 67467.48 20061.43 A 1999.9933154 1999.9933154 0 1 1 67467.48 17526.51 M 67467.48 26157.43 A 1999.9933154 1999.9933154 0 1 1 67467.48 23622.51 M 67467.48 32634.43 A 1999.9933154 1999.9933154 0 1 1 67467.48 30099.51 M 67467.48 38603.43 A 1999.9933154 1999.9933154 0 1 1 67467.48 36068.51 M 67467.48 44445.43 A 1999.9933154 1999.9933154 0 1 1 67467.48 41910.51 M 67467.48 50414.43 A 1999.9933154 1999.9933154 0 1 1 67467.48 47879.51 M 67467.48 56510.43 A 1999.9933154 1999.9933154 0 1 1 67467.48 53975.51 M 67467.48 62225.43 A 1999.9933154 1999.9933154 0 1 1 67467.48 59690.51" fill="none" stroke-width="254"/><path d="M 35505.16 36384.99 A 824.995097 824.995097 0 0 1 35505.16 34735.01 M 51003.68 24415.75 A 793.75 793.75 0 0 1 51003.68 22828.25 M 49987.68 46894.75 A 793.75 793.75 0 0 1 49987.68 45307.25" fill="none" stroke-width="152.4"/><path d="M 27103.83 20613.88 A 199.9 199.9 0 0 1 26704.03 20613.88 199.9 199.9 0 0 1 27103.83 20613.88 M 16162.02 60177.93 A 199.9 199.9 0 0 1 15762.22 60177.93 199.9 199.9 0 0 1 16162.02 60177.93" fill="none" stroke-width="254"/><path d="M 35339.02 39459.92 A 150.11 150.11 0 0 1 35038.8 39459.92 150.11 150.11 0 0 1 35339.02 39459.92 M 51685.19 27642.06 A 150.11 150.11 0 0 1 51384.97 27642.06 150.11 150.11 0 0 1 51685.19 27642.06 M 50669.19 50121.06 A 150.11 150.11 0 0 1 50368.97 50121.06 150.11 150.11 0 0 1 50669.19 50121.06" fill="none" stroke-width="300"/></g><g id="HkBJNdsYbV0p7xZ8t4r1_top_soldermask"><use xlink:href="#qNN0U5VLRnf_nEF-Wtwg_pad-10" x="26303.98" y="23114"/><use xlink:href="#qNN0U5VLRnf_nEF-Wtwg_pad-10" x="24303.99" y="23114"/><use xlink:href="#qNN0U5VLRnf_nEF-Wtwg_pad-10" x="22303.99" y="23114"/><use xlink:href="#qNN0U5VLRnf_nEF-Wtwg_pad-10" x="20303.99" y="23114"/><use xlink:href="#qNN0U5VLRnf_nEF-Wtwg_pad-10" x="18304" y="23114"/><use xlink:href="#qNN0U5VLRnf_nEF-Wtwg_pad-10" x="16304" y="23114"/><use xlink:href="#qNN0U5VLRnf_nEF-Wtwg_pad-10" x="14304.01" y="23114"/><use xlink:href="#qNN0U5VLRnf_nEF-Wtwg_pad-10" x="12304.01" y="23114"/><use xlink:href="#qNN0U5VLRnf_nEF-Wtwg_pad-10" x="13462" y="59577.98"/><use xlink:href="#qNN0U5VLRnf_nEF-Wtwg_pad-10" x="13462" y="57577.98"/><use xlink:href="#qNN0U5VLRnf_nEF-Wtwg_pad-10" x="13462" y="55577.99"/><use xlink:href="#qNN0U5VLRnf_nEF-Wtwg_pad-10" x="13462" y="53577.99"/><use xlink:href="#qNN0U5VLRnf_nEF-Wtwg_pad-10" x="13462" y="51578"/><use xlink:href="#qNN0U5VLRnf_nEF-Wtwg_pad-10" x="13462" y="49578"/><use xlink:href="#qNN0U5VLRnf_nEF-Wtwg_pad-10" x="13462" y="47578.01"/><use xlink:href="#qNN0U5VLRnf_nEF-Wtwg_pad-10" x="13462" y="45578.01"/><use xlink:href="#qNN0U5VLRnf_nEF-Wtwg_pad-11" x="18161" y="62103"/><use xlink:href="#qNN0U5VLRnf_nEF-Wtwg_pad-12" x="64516" y="18796"/><use xlink:href="#qNN0U5VLRnf_nEF-Wtwg_pad-12" x="67056" y="18796"/><use xlink:href="#qNN0U5VLRnf_nEF-Wtwg_pad-12" x="64516" y="24892"/><use xlink:href="#qNN0U5VLRnf_nEF-Wtwg_pad-12" x="67056" y="24892"/><use xlink:href="#qNN0U5VLRnf_nEF-Wtwg_pad-12" x="64516" y="31369"/><use xlink:href="#qNN0U5VLRnf_nEF-Wtwg_pad-12" x="67056" y="31369"/><use xlink:href="#qNN0U5VLRnf_nEF-Wtwg_pad-12" x="64516" y="37338"/><use xlink:href="#qNN0U5VLRnf_nEF-Wtwg_pad-12" x="67056" y="37338"/><use xlink:href="#qNN0U5VLRnf_nEF-Wtwg_pad-12" x="64516" y="43180"/><use xlink:href="#qNN0U5VLRnf_nEF-Wtwg_pad-12" x="67056" y="43180"/><use xlink:href="#qNN0U5VLRnf_nEF-Wtwg_pad-12" x="64516" y="49149"/><use xlink:href="#qNN0U5VLRnf_nEF-Wtwg_pad-12" x="67056" y="49149"/><use xlink:href="#qNN0U5VLRnf_nEF-Wtwg_pad-12" x="64516" y="55245"/><use xlink:href="#qNN0U5VLRnf_nEF-Wtwg_pad-12" x="67056" y="55245"/><use xlink:href="#qNN0U5VLRnf_nEF-Wtwg_pad-13" x="64516" y="60960"/><use xlink:href="#qNN0U5VLRnf_nEF-Wtwg_pad-13" x="67056" y="60960"/><use xlink:href="#qNN0U5VLRnf_nEF-Wtwg_pad-14" x="61468" y="18669"/><use xlink:href="#qNN0U5VLRnf_nEF-Wtwg_pad-14" x="53848" y="18669"/><use xlink:href="#qNN0U5VLRnf_nEF-Wtwg_pad-14" x="61595" y="25019"/><use xlink:href="#qNN0U5VLRnf_nEF-Wtwg_pad-14" x="53975" y="25019"/><use xlink:href="#qNN0U5VLRnf_nEF-Wtwg_pad-14" x="61595" y="31496"/><use xlink:href="#qNN0U5VLRnf_nEF-Wtwg_pad-14" x="53975" y="31496"/><use xlink:href="#qNN0U5VLRnf_nEF-Wtwg_pad-14" x="61468" y="37211"/><use xlink:href="#qNN0U5VLRnf_nEF-Wtwg_pad-14" x="53848" y="37211"/><use xlink:href="#qNN0U5VLRnf_nEF-Wtwg_pad-14" x="61214" y="48895"/><use xlink:href="#qNN0U5VLRnf_nEF-Wtwg_pad-14" x="53594" y="48895"/><use xlink:href="#qNN0U5VLRnf_nEF-Wtwg_pad-14" x="61595" y="55372"/><use xlink:href="#qNN0U5VLRnf_nEF-Wtwg_pad-14" x="53975" y="55372"/><use xlink:href="#qNN0U5VLRnf_nEF-Wtwg_pad-14" x="61214" y="61087"/><use xlink:href="#qNN0U5VLRnf_nEF-Wtwg_pad-14" x="53594" y="61087"/><use xlink:href="#qNN0U5VLRnf_nEF-Wtwg_pad-14" x="61087" y="43053"/><use xlink:href="#qNN0U5VLRnf_nEF-Wtwg_pad-14" x="53467" y="43053"/><use xlink:href="#qNN0U5VLRnf_nEF-Wtwg_pad-15" x="33909" y="39530.02"/><use xlink:href="#qNN0U5VLRnf_nEF-Wtwg_pad-15" x="33909" y="31589.97"/><use xlink:href="#qNN0U5VLRnf_nEF-Wtwg_pad-15" x="31369" y="39530.02"/><use xlink:href="#qNN0U5VLRnf_nEF-Wtwg_pad-15" x="31369" y="31589.97"/><use xlink:href="#qNN0U5VLRnf_nEF-Wtwg_pad-15" x="28829" y="39530.02"/><use xlink:href="#qNN0U5VLRnf_nEF-Wtwg_pad-15" x="28829" y="31589.97"/><use xlink:href="#qNN0U5VLRnf_nEF-Wtwg_pad-15" x="26289" y="39530.02"/><use xlink:href="#qNN0U5VLRnf_nEF-Wtwg_pad-15" x="26289" y="31589.97"/><use xlink:href="#qNN0U5VLRnf_nEF-Wtwg_pad-15" x="23749" y="39530.02"/><use xlink:href="#qNN0U5VLRnf_nEF-Wtwg_pad-15" x="23749" y="31589.97"/><use xlink:href="#qNN0U5VLRnf_nEF-Wtwg_pad-15" x="21209" y="39530.02"/><use xlink:href="#qNN0U5VLRnf_nEF-Wtwg_pad-15" x="21209" y="31589.97"/><use xlink:href="#qNN0U5VLRnf_nEF-Wtwg_pad-15" x="18669" y="39530.02"/><use xlink:href="#qNN0U5VLRnf_nEF-Wtwg_pad-15" x="18669" y="31589.97"/><use xlink:href="#qNN0U5VLRnf_nEF-Wtwg_pad-15" x="16129" y="39530.02"/><use xlink:href="#qNN0U5VLRnf_nEF-Wtwg_pad-15" x="16129" y="31589.97"/><use xlink:href="#qNN0U5VLRnf_nEF-Wtwg_pad-15" x="13589" y="39530.02"/><use xlink:href="#qNN0U5VLRnf_nEF-Wtwg_pad-15" x="13589" y="31589.97"/><use xlink:href="#qNN0U5VLRnf_nEF-Wtwg_pad-15" x="11049" y="39530.02"/><use xlink:href="#qNN0U5VLRnf_nEF-Wtwg_pad-15" x="11049" y="31589.97"/><use xlink:href="#qNN0U5VLRnf_nEF-Wtwg_pad-16" x="50165" y="27592.02"/><use xlink:href="#qNN0U5VLRnf_nEF-Wtwg_pad-16" x="50165" y="19651.97"/><use xlink:href="#qNN0U5VLRnf_nEF-Wtwg_pad-16" x="47625" y="27592.02"/><use xlink:href="#qNN0U5VLRnf_nEF-Wtwg_pad-16" x="47625" y="19651.97"/><use xlink:href="#qNN0U5VLRnf_nEF-Wtwg_pad-16" x="45085" y="27592.02"/><use xlink:href="#qNN0U5VLRnf_nEF-Wtwg_pad-16" x="45085" y="19651.97"/><use xlink:href="#qNN0U5VLRnf_nEF-Wtwg_pad-16" x="42545" y="27592.02"/><use xlink:href="#qNN0U5VLRnf_nEF-Wtwg_pad-16" x="42545" y="19651.97"/><use xlink:href="#qNN0U5VLRnf_nEF-Wtwg_pad-16" x="40005" y="27592.02"/><use xlink:href="#qNN0U5VLRnf_nEF-Wtwg_pad-16" x="40005" y="19651.97"/><use xlink:href="#qNN0U5VLRnf_nEF-Wtwg_pad-16" x="37465" y="27592.02"/><use xlink:href="#qNN0U5VLRnf_nEF-Wtwg_pad-16" x="37465" y="19651.97"/><use xlink:href="#qNN0U5VLRnf_nEF-Wtwg_pad-16" x="34925" y="27592.02"/><use xlink:href="#qNN0U5VLRnf_nEF-Wtwg_pad-16" x="34925" y="19651.97"/><use xlink:href="#qNN0U5VLRnf_nEF-Wtwg_pad-16" x="32385" y="27592.02"/><use xlink:href="#qNN0U5VLRnf_nEF-Wtwg_pad-16" x="32385" y="19651.97"/><use xlink:href="#qNN0U5VLRnf_nEF-Wtwg_pad-16" x="49149" y="50071.02"/><use xlink:href="#qNN0U5VLRnf_nEF-Wtwg_pad-16" x="49149" y="42130.97"/><use xlink:href="#qNN0U5VLRnf_nEF-Wtwg_pad-16" x="46609" y="50071.02"/><use xlink:href="#qNN0U5VLRnf_nEF-Wtwg_pad-16" x="46609" y="42130.97"/><use xlink:href="#qNN0U5VLRnf_nEF-Wtwg_pad-16" x="44069" y="50071.02"/><use xlink:href="#qNN0U5VLRnf_nEF-Wtwg_pad-16" x="44069" y="42130.97"/><use xlink:href="#qNN0U5VLRnf_nEF-Wtwg_pad-16" x="41529" y="50071.02"/><use xlink:href="#qNN0U5VLRnf_nEF-Wtwg_pad-16" x="41529" y="42130.97"/><use xlink:href="#qNN0U5VLRnf_nEF-Wtwg_pad-16" x="38989" y="50071.02"/><use xlink:href="#qNN0U5VLRnf_nEF-Wtwg_pad-16" x="38989" y="42130.97"/><use xlink:href="#qNN0U5VLRnf_nEF-Wtwg_pad-16" x="36449" y="50071.02"/><use xlink:href="#qNN0U5VLRnf_nEF-Wtwg_pad-16" x="36449" y="42130.97"/><use xlink:href="#qNN0U5VLRnf_nEF-Wtwg_pad-16" x="33909" y="50071.02"/><use xlink:href="#qNN0U5VLRnf_nEF-Wtwg_pad-16" x="33909" y="42130.97"/><use xlink:href="#qNN0U5VLRnf_nEF-Wtwg_pad-16" x="31369" y="50071.02"/><use xlink:href="#qNN0U5VLRnf_nEF-Wtwg_pad-16" x="31369" y="42130.97"/><use xlink:href="#qNN0U5VLRnf_nEF-Wtwg_pad-17" x="27399.99" y="57531"/><use xlink:href="#qNN0U5VLRnf_nEF-Wtwg_pad-17" x="23400" y="57531"/><use xlink:href="#qNN0U5VLRnf_nEF-Wtwg_pad-17" x="25400" y="57531"/><use xlink:href="#qNN0U5VLRnf_nEF-Wtwg_pad-18" x="21249.89" y="57531"/><use xlink:href="#qNN0U5VLRnf_nEF-Wtwg_pad-18" x="29550.1" y="57531"/><use xlink:href="#qNN0U5VLRnf_nEF-Wtwg_pad-17" x="38575.99" y="57531"/><use xlink:href="#qNN0U5VLRnf_nEF-Wtwg_pad-17" x="34576" y="57531"/><use xlink:href="#qNN0U5VLRnf_nEF-Wtwg_pad-17" x="36576" y="57531"/><use xlink:href="#qNN0U5VLRnf_nEF-Wtwg_pad-18" x="32425.89" y="57531"/><use xlink:href="#qNN0U5VLRnf_nEF-Wtwg_pad-18" x="40726.1" y="57531"/><use xlink:href="#qNN0U5VLRnf_nEF-Wtwg_pad-17" x="49497.99" y="57658"/><use xlink:href="#qNN0U5VLRnf_nEF-Wtwg_pad-17" x="45498" y="57658"/><use xlink:href="#qNN0U5VLRnf_nEF-Wtwg_pad-17" x="47498" y="57658"/><use xlink:href="#qNN0U5VLRnf_nEF-Wtwg_pad-18" x="43347.89" y="57658"/><use xlink:href="#qNN0U5VLRnf_nEF-Wtwg_pad-18" x="51648.1" y="57658"/></g><g id="HkBJNdsYbV0p7xZ8t4r1_top_drill1"><use xlink:href="#BVLUQUuNbp7P_k8y6-Z3_pad-1" x="46609" y="33782"/><use xlink:href="#BVLUQUuNbp7P_k8y6-Z3_pad-1" x="52324" y="29083"/><use xlink:href="#BVLUQUuNbp7P_k8y6-Z3_pad-1" x="45466" y="24638"/><use xlink:href="#BVLUQUuNbp7P_k8y6-Z3_pad-1" x="33782" y="17145"/><use xlink:href="#BVLUQUuNbp7P_k8y6-Z3_pad-1" x="25527" y="18034"/><use xlink:href="#BVLUQUuNbp7P_k8y6-Z3_pad-1" x="30734" y="23114"/><use xlink:href="#BVLUQUuNbp7P_k8y6-Z3_pad-1" x="45974" y="29972"/><use xlink:href="#BVLUQUuNbp7P_k8y6-Z3_pad-1" x="28067" y="49911"/><use xlink:href="#BVLUQUuNbp7P_k8y6-Z3_pad-1" x="38862" y="53340"/><use xlink:href="#BVLUQUuNbp7P_k8y6-Z3_pad-1" x="43180" y="52451"/></g><g id="HkBJNdsYbV0p7xZ8t4r1_top_drill2"><use xlink:href="#mRocsrq9sKoXMC55LfxW_pad-1" x="46609" y="33782"/><use xlink:href="#mRocsrq9sKoXMC55LfxW_pad-1" x="52324" y="29083"/><use xlink:href="#mRocsrq9sKoXMC55LfxW_pad-1" x="45466" y="24638"/><use xlink:href="#mRocsrq9sKoXMC55LfxW_pad-1" x="33782" y="17145"/><use xlink:href="#mRocsrq9sKoXMC55LfxW_pad-1" x="25527" y="18034"/><use xlink:href="#mRocsrq9sKoXMC55LfxW_pad-1" x="30734" y="23114"/><use xlink:href="#mRocsrq9sKoXMC55LfxW_pad-1" x="45974" y="29972"/><use xlink:href="#mRocsrq9sKoXMC55LfxW_pad-1" x="28067" y="49911"/><use xlink:href="#mRocsrq9sKoXMC55LfxW_pad-1" x="38862" y="53340"/><use xlink:href="#mRocsrq9sKoXMC55LfxW_pad-1" x="43180" y="52451"/><use xlink:href="#mRocsrq9sKoXMC55LfxW_pad-2" x="33909" y="39530"/><use xlink:href="#mRocsrq9sKoXMC55LfxW_pad-2" x="33909" y="31590"/><use xlink:href="#mRocsrq9sKoXMC55LfxW_pad-2" x="31369" y="39530"/><use xlink:href="#mRocsrq9sKoXMC55LfxW_pad-2" x="31369" y="31590"/><use xlink:href="#mRocsrq9sKoXMC55LfxW_pad-2" x="28829" y="39530"/><use xlink:href="#mRocsrq9sKoXMC55LfxW_pad-2" x="28829" y="31590"/><use xlink:href="#mRocsrq9sKoXMC55LfxW_pad-2" x="26289" y="39530"/><use xlink:href="#mRocsrq9sKoXMC55LfxW_pad-2" x="26289" y="31590"/><use xlink:href="#mRocsrq9sKoXMC55LfxW_pad-2" x="23749" y="39530"/><use xlink:href="#mRocsrq9sKoXMC55LfxW_pad-2" x="23749" y="31590"/><use xlink:href="#mRocsrq9sKoXMC55LfxW_pad-2" x="21209" y="39530"/><use xlink:href="#mRocsrq9sKoXMC55LfxW_pad-2" x="21209" y="31590"/><use xlink:href="#mRocsrq9sKoXMC55LfxW_pad-2" x="18669" y="39530"/><use xlink:href="#mRocsrq9sKoXMC55LfxW_pad-2" x="18669" y="31590"/><use xlink:href="#mRocsrq9sKoXMC55LfxW_pad-2" x="16129" y="39530"/><use xlink:href="#mRocsrq9sKoXMC55LfxW_pad-2" x="16129" y="31590"/><use xlink:href="#mRocsrq9sKoXMC55LfxW_pad-2" x="13589" y="39530"/><use xlink:href="#mRocsrq9sKoXMC55LfxW_pad-2" x="13589" y="31590"/><use xlink:href="#mRocsrq9sKoXMC55LfxW_pad-2" x="11049" y="39530"/><use xlink:href="#mRocsrq9sKoXMC55LfxW_pad-2" x="11049" y="31590"/><use xlink:href="#mRocsrq9sKoXMC55LfxW_pad-2" x="50165" y="27592"/><use xlink:href="#mRocsrq9sKoXMC55LfxW_pad-2" x="50165" y="19652"/><use xlink:href="#mRocsrq9sKoXMC55LfxW_pad-2" x="47625" y="27592"/><use xlink:href="#mRocsrq9sKoXMC55LfxW_pad-2" x="47625" y="19652"/><use xlink:href="#mRocsrq9sKoXMC55LfxW_pad-2" x="45085" y="27592"/><use xlink:href="#mRocsrq9sKoXMC55LfxW_pad-2" x="45085" y="19652"/><use xlink:href="#mRocsrq9sKoXMC55LfxW_pad-2" x="42545" y="27592"/><use xlink:href="#mRocsrq9sKoXMC55LfxW_pad-2" x="42545" y="19652"/><use xlink:href="#mRocsrq9sKoXMC55LfxW_pad-2" x="40005" y="27592"/><use xlink:href="#mRocsrq9sKoXMC55LfxW_pad-2" x="40005" y="19652"/><use xlink:href="#mRocsrq9sKoXMC55LfxW_pad-2" x="37465" y="27592"/><use xlink:href="#mRocsrq9sKoXMC55LfxW_pad-2" x="37465" y="19652"/><use xlink:href="#mRocsrq9sKoXMC55LfxW_pad-2" x="34925" y="27592"/><use xlink:href="#mRocsrq9sKoXMC55LfxW_pad-2" x="34925" y="19652"/><use xlink:href="#mRocsrq9sKoXMC55LfxW_pad-2" x="32385" y="27592"/><use xlink:href="#mRocsrq9sKoXMC55LfxW_pad-2" x="32385" y="19652"/><use xlink:href="#mRocsrq9sKoXMC55LfxW_pad-2" x="49149" y="50071"/><use xlink:href="#mRocsrq9sKoXMC55LfxW_pad-2" x="49149" y="42131"/><use xlink:href="#mRocsrq9sKoXMC55LfxW_pad-2" x="46609" y="50071"/><use xlink:href="#mRocsrq9sKoXMC55LfxW_pad-2" x="46609" y="42131"/><use xlink:href="#mRocsrq9sKoXMC55LfxW_pad-2" x="44069" y="50071"/><use xlink:href="#mRocsrq9sKoXMC55LfxW_pad-2" x="44069" y="42131"/><use xlink:href="#mRocsrq9sKoXMC55LfxW_pad-2" x="41529" y="50071"/><use xlink:href="#mRocsrq9sKoXMC55LfxW_pad-2" x="41529" y="42131"/><use xlink:href="#mRocsrq9sKoXMC55LfxW_pad-2" x="38989" y="50071"/><use xlink:href="#mRocsrq9sKoXMC55LfxW_pad-2" x="38989" y="42131"/><use xlink:href="#mRocsrq9sKoXMC55LfxW_pad-2" x="36449" y="50071"/><use xlink:href="#mRocsrq9sKoXMC55LfxW_pad-2" x="36449" y="42131"/><use xlink:href="#mRocsrq9sKoXMC55LfxW_pad-2" x="33909" y="50071"/><use xlink:href="#mRocsrq9sKoXMC55LfxW_pad-2" x="33909" y="42131"/><use xlink:href="#mRocsrq9sKoXMC55LfxW_pad-2" x="31369" y="50071"/><use xlink:href="#mRocsrq9sKoXMC55LfxW_pad-2" x="31369" y="42131"/><use xlink:href="#mRocsrq9sKoXMC55LfxW_pad-3" x="18161" y="62103"/><use xlink:href="#mRocsrq9sKoXMC55LfxW_pad-4" x="61468" y="18669"/><use xlink:href="#mRocsrq9sKoXMC55LfxW_pad-4" x="53848" y="18669"/><use xlink:href="#mRocsrq9sKoXMC55LfxW_pad-4" x="61595" y="25019"/><use xlink:href="#mRocsrq9sKoXMC55LfxW_pad-4" x="53975" y="25019"/><use xlink:href="#mRocsrq9sKoXMC55LfxW_pad-4" x="61595" y="31496"/><use xlink:href="#mRocsrq9sKoXMC55LfxW_pad-4" x="53975" y="31496"/><use xlink:href="#mRocsrq9sKoXMC55LfxW_pad-4" x="61468" y="37211"/><use xlink:href="#mRocsrq9sKoXMC55LfxW_pad-4" x="53848" y="37211"/><use xlink:href="#mRocsrq9sKoXMC55LfxW_pad-4" x="61214" y="48895"/><use xlink:href="#mRocsrq9sKoXMC55LfxW_pad-4" x="53594" y="48895"/><use xlink:href="#mRocsrq9sKoXMC55LfxW_pad-4" x="61595" y="55372"/><use xlink:href="#mRocsrq9sKoXMC55LfxW_pad-4" x="53975" y="55372"/><use xlink:href="#mRocsrq9sKoXMC55LfxW_pad-4" x="61214" y="61087"/><use xlink:href="#mRocsrq9sKoXMC55LfxW_pad-4" x="53594" y="61087"/><use xlink:href="#mRocsrq9sKoXMC55LfxW_pad-4" x="61087" y="43053"/><use xlink:href="#mRocsrq9sKoXMC55LfxW_pad-4" x="53467" y="43053"/><use xlink:href="#mRocsrq9sKoXMC55LfxW_pad-5" x="26304" y="23114"/><use xlink:href="#mRocsrq9sKoXMC55LfxW_pad-5" x="24304" y="23114"/><use xlink:href="#mRocsrq9sKoXMC55LfxW_pad-5" x="22304" y="23114"/><use xlink:href="#mRocsrq9sKoXMC55LfxW_pad-5" x="20304" y="23114"/><use xlink:href="#mRocsrq9sKoXMC55LfxW_pad-5" x="18304" y="23114"/><use xlink:href="#mRocsrq9sKoXMC55LfxW_pad-5" x="16304" y="23114"/><use xlink:href="#mRocsrq9sKoXMC55LfxW_pad-5" x="14304" y="23114"/><use xlink:href="#mRocsrq9sKoXMC55LfxW_pad-5" x="12304" y="23114"/><use xlink:href="#mRocsrq9sKoXMC55LfxW_pad-5" x="13462" y="59578"/><use xlink:href="#mRocsrq9sKoXMC55LfxW_pad-5" x="13462" y="57578"/><use xlink:href="#mRocsrq9sKoXMC55LfxW_pad-5" x="13462" y="55578"/><use xlink:href="#mRocsrq9sKoXMC55LfxW_pad-5" x="13462" y="53578"/><use xlink:href="#mRocsrq9sKoXMC55LfxW_pad-5" x="13462" y="51578"/><use xlink:href="#mRocsrq9sKoXMC55LfxW_pad-5" x="13462" y="49578"/><use xlink:href="#mRocsrq9sKoXMC55LfxW_pad-5" x="13462" y="47578"/><use xlink:href="#mRocsrq9sKoXMC55LfxW_pad-5" x="13462" y="45578"/><use xlink:href="#mRocsrq9sKoXMC55LfxW_pad-5" x="64516" y="18796"/><use xlink:href="#mRocsrq9sKoXMC55LfxW_pad-5" x="67056" y="18796"/><use xlink:href="#mRocsrq9sKoXMC55LfxW_pad-5" x="64516" y="24892"/><use xlink:href="#mRocsrq9sKoXMC55LfxW_pad-5" x="67056" y="24892"/><use xlink:href="#mRocsrq9sKoXMC55LfxW_pad-5" x="64516" y="31369"/><use xlink:href="#mRocsrq9sKoXMC55LfxW_pad-5" x="67056" y="31369"/><use xlink:href="#mRocsrq9sKoXMC55LfxW_pad-5" x="64516" y="37338"/><use xlink:href="#mRocsrq9sKoXMC55LfxW_pad-5" x="67056" y="37338"/><use xlink:href="#mRocsrq9sKoXMC55LfxW_pad-5" x="64516" y="43180"/><use xlink:href="#mRocsrq9sKoXMC55LfxW_pad-5" x="67056" y="43180"/><use xlink:href="#mRocsrq9sKoXMC55LfxW_pad-5" x="64516" y="49149"/><use xlink:href="#mRocsrq9sKoXMC55LfxW_pad-5" x="67056" y="49149"/><use xlink:href="#mRocsrq9sKoXMC55LfxW_pad-5" x="64516" y="55245"/><use xlink:href="#mRocsrq9sKoXMC55LfxW_pad-5" x="67056" y="55245"/><use xlink:href="#mRocsrq9sKoXMC55LfxW_pad-5" x="64516" y="60960"/><use xlink:href="#mRocsrq9sKoXMC55LfxW_pad-5" x="67056" y="60960"/><use xlink:href="#mRocsrq9sKoXMC55LfxW_pad-6" x="27400" y="57531"/><use xlink:href="#mRocsrq9sKoXMC55LfxW_pad-6" x="23400" y="57531"/><use xlink:href="#mRocsrq9sKoXMC55LfxW_pad-6" x="25400" y="57531"/><use xlink:href="#mRocsrq9sKoXMC55LfxW_pad-6" x="38576" y="57531"/><use xlink:href="#mRocsrq9sKoXMC55LfxW_pad-6" x="34576" y="57531"/><use xlink:href="#mRocsrq9sKoXMC55LfxW_pad-6" x="36576" y="57531"/><use xlink:href="#mRocsrq9sKoXMC55LfxW_pad-6" x="49498" y="57658"/><use xlink:href="#mRocsrq9sKoXMC55LfxW_pad-6" x="45498" y="57658"/><use xlink:href="#mRocsrq9sKoXMC55LfxW_pad-6" x="47498" y="57658"/><path d="M 21250 57331 21250 57731 M 29550 57331 29550 57731 M 32426 57331 32426 57731 M 40726 57331 40726 57731 M 43348 57458 43348 57858 M 51648 57458 51648 57858" fill="none" stroke-width="1000"/></g><clipPath id="HkBJNdsYbV0p7xZ8t4r1_top_outline"><path d="M 8509 64389 68508.88 64389 68508.88 15748 8509 15748 8509 64389" fill="none" stroke-width="254"/></clipPath><mask id="HkBJNdsYbV0p7xZ8t4r1_top_mech-mask"><g fill="#000" stroke="#000"><rect x="8509" y="15748" width="59999.88" height="48641" fill="#fff"/><use xlink:href="#HkBJNdsYbV0p7xZ8t4r1_top_drill1"/><use xlink:href="#HkBJNdsYbV0p7xZ8t4r1_top_drill2"/></g></mask><mask id="HkBJNdsYbV0p7xZ8t4r1_top_cf-mask"><g fill="#fff" stroke="#fff"><use xlink:href="#HkBJNdsYbV0p7xZ8t4r1_top_soldermask"/></g></mask><mask id="HkBJNdsYbV0p7xZ8t4r1_top_sm-mask"><g fill="#000" stroke="#000"><rect x="8509" y="15748" width="59999.88" height="48641" fill="#fff"/><use xlink:href="#HkBJNdsYbV0p7xZ8t4r1_top_soldermask"/></g></mask></defs><g transform="translate(0,80137) scale(1,-1)"><g mask="url(#HkBJNdsYbV0p7xZ8t4r1_top_mech-mask)" clip-path="url(#HkBJNdsYbV0p7xZ8t4r1_top_outline)"><rect x="8509" y="15748" width="59999.88" height="48641" fill="currentColor" class="HkBJNdsYbV0p7xZ8t4r1_fr4"/><use xlink:href="#HkBJNdsYbV0p7xZ8t4r1_top_copper" fill="currentColor" stroke="currentColor" class="HkBJNdsYbV0p7xZ8t4r1_cu"/><use xlink:href="#HkBJNdsYbV0p7xZ8t4r1_top_copper" fill="currentColor" stroke="currentColor" class="HkBJNdsYbV0p7xZ8t4r1_cf" mask="url(#HkBJNdsYbV0p7xZ8t4r1_top_cf-mask)"/><g mask="url(#HkBJNdsYbV0p7xZ8t4r1_top_sm-mask)"><rect x="8509" y="15748" width="59999.88" height="48641" fill="currentColor" class="HkBJNdsYbV0p7xZ8t4r1_sm"/><use xlink:href="#HkBJNdsYbV0p7xZ8t4r1_top_silkscreen" fill="currentColor" stroke="currentColor" class="HkBJNdsYbV0p7xZ8t4r1_ss"/></g></g></g></svg>